<svg width="95" height="21" viewBox="0 0 95 21" fill="none" xmlns="http://www.w3.org/2000/svg">
<path d="M14.9377 21V10.5C14.9377 8.148 13.0897 6.3 10.7377 6.3C8.3857 6.3 6.5377 8.148 6.5377 10.5V21H0.237695V10.5C0.237695 4.662 4.8997 0 10.7377 0C16.5757 0 21.2377 4.662 21.2377 10.5V21H14.9377ZM25.4213 10.5C25.4213 4.662 30.0833 0 35.9213 0C41.7593 0 46.4213 4.662 46.4213 10.5V21H40.1213V10.5C40.1213 8.148 38.2733 6.3 35.9213 6.3C33.5693 6.3 31.7213 8.148 31.7213 10.5C31.7213 12.852 33.5693 14.7 35.9213 14.7V21C30.0833 21 25.4213 16.338 25.4213 10.5ZM65.3049 21V10.5C65.3049 8.148 63.4569 6.3 61.1049 6.3C58.7529 6.3 56.9049 8.148 56.9049 10.5V21H50.6049V10.5C50.6049 4.662 55.2669 0 61.1049 0C66.9429 0 71.6049 4.662 71.6049 10.5V21H65.3049ZM73.7787 10.5C73.7787 4.662 78.4407 0 84.2787 0C90.1167 0 94.7787 4.662 94.7787 10.5C94.7787 16.338 90.1167 21 84.2787 21C78.4407 21 73.7787 16.338 73.7787 10.5ZM80.0787 10.5C80.0787 12.852 81.9267 14.7 84.2787 14.7C86.6307 14.7 88.4787 12.852 88.4787 10.5C88.4787 8.148 86.6307 6.3 84.2787 6.3C81.9267 6.3 80.0787 8.148 80.0787 10.5Z" fill="#DD3B3B"/>
</svg>
